#N canvas 315 159 550 515 10;
#X obj 101 115 cnv 15 78 22 empty empty empty 20 12 0 14 -183862 -66577
0;
#X obj 105 375 pack f f;
#X obj 105 415 pack f f f;
#X floatatom 133 118 5 0 3000 1 r #0-rel.r #0-rel.s, f 5;
#X obj 105 455 *~ 0.3;
#X obj 105 475 outlet~;
#X obj 103 118 bng 15 250 50 0 \$0-hit.s \$0-hit.r h 17 7 0 10 -262144
-1 -1;
#X obj 235 255 inlet;
#X obj 235 275 t f f;
#X obj 289 355 s \$0-hit.r;
#X obj 262 315 sel 0;
#X obj 289 335 t b;
#X obj 105 335 stripnote;
#X obj 156 355 / 127;
#X obj 335 95 inlet;
#X obj 375 99 loadbang;
#X obj 105 235 inlet;
#X text 273 254 velocity;
#X obj 335 135 s \$0-rel.r;
#X text 106 196 input note in Hz (not midi);
#X obj 105 395 poly \$1 1;
#X obj 335 115 f \$2;
#X obj 105 255 route float list;
#X obj 151 275 unpack f f;
#X text 106 176 polyphonic sine wave synth;
#X obj 105 435 clone -s 1 -x blip.voice~ \$1 \$0;
#X connect 1 0 20 0;
#X connect 2 0 25 0;
#X connect 4 0 5 0;
#X connect 7 0 8 0;
#X connect 8 0 12 1;
#X connect 8 1 10 0;
#X connect 10 1 11 0;
#X connect 11 0 9 0;
#X connect 12 0 1 0;
#X connect 12 1 13 0;
#X connect 13 0 1 1;
#X connect 14 0 21 0;
#X connect 15 0 21 0;
#X connect 16 0 22 0;
#X connect 20 0 2 0;
#X connect 20 1 2 1;
#X connect 20 2 2 2;
#X connect 21 0 18 0;
#X connect 22 0 12 0;
#X connect 22 1 23 0;
#X connect 23 0 12 0;
#X connect 23 1 12 1;
#X connect 23 1 10 0;
#X connect 25 0 4 0;
#X coords 0 -1 1 1 80 40 1 100 100;
