#N canvas 162 173 1150 699 12;
#X obj 27 249 out1~;
#N canvas 150 175 916 300 credits 0;
#X text 88 33 CREDITS ======= Patch glued together by dr_kd: http://unfuck.i.ng
Sinesum patch: https://forum.pdpatchrepo.info/topic/13297/need-help-implementing-sinesum-oscillator-with-variable-list/7
f2scale and blip~ synth from user weightless here: https://forum.pdpatchrepo.info/topic/11775/creating-a-quantizer/6
, f 111;
#X restore 126 586 pd credits;
#X obj 58 40 hradio 15 1 0 20 empty \$0-ordfreq How\\\ fast\\\ to\\\ read\\\ wavetable
0 -8 0 10 #fcfcfc #000000 #000000 0;
#N canvas 344 118 450 300 swingmetro 0;
#X text 63 20 BPM;
#X obj 44 45 nbx 3 20 10 200 0 1 empty empty empty 0 -8 0 10 #fcfcfc
#000000 #000000 51 256;
#X obj 207 58 hsl 128 15 0 0.33 0 0 feel empty 16th-note-feel 20 8
0 10 #fcfcfc #fc8000 #000000 0 0;
#N canvas 526 170 191 127 time-signature 0;
#X obj 19 16 inlet;
#X obj 19 50 == 0;
#X obj 62 50 s signature12/16;
#X obj 19 77 s signature16/16;
#X connect 0 0 1 0;
#X connect 0 0 2 0;
#X connect 1 0 3 0;
#X restore 205 119 pd time-signature;
#X obj 205 76 vradio 15 1 1 2 empty empty empty 0 -8 0 10 #fcfcfc #fc8000
#000000 0;
#X text 224 76 4/4;
#X floatatom 22 108 5 0 0 0 - - - 0;
#X floatatom 79 108 5 0 0 0 - - - 0;
#X obj 22 137 s ticks;
#N canvas 472 450 176 103 sixteenths 0;
#X obj 20 24 r ticks;
#X obj 20 57 outlet;
#X connect 0 0 1 0;
#X restore 158 172 pd sixteenths;
#X obj 158 198 bng 15 50 50 0 empty empty empty 17 7 0 10 #fcfcfc #000000
#000000;
#N canvas 472 450 140 141 eighths 0;
#X obj 20 24 r ticks;
#X obj 20 103 outlet;
#X obj 20 51 >> 1;
#X obj 20 77 change;
#X connect 0 0 2 0;
#X connect 2 0 3 0;
#X connect 3 0 1 0;
#X restore 87 172 pd eighths;
#X obj 87 198 bng 15 50 50 0 empty empty empty 17 7 0 10 #fcfcfc #000000
#000000;
#N canvas 472 450 140 141 quarts 0;
#X obj 20 24 r ticks;
#X obj 20 103 outlet;
#X obj 20 77 change;
#X obj 20 51 >> 2;
#X connect 0 0 3 0;
#X connect 2 0 1 0;
#X connect 3 0 2 0;
#X restore 22 172 pd quarts;
#X obj 22 198 bng 15 50 50 0 empty empty empty 17 7 0 10 #fcfcfc #000000
#000000;
#X text 224 91 12/16;
#N canvas 476 430 171 317 12/16 0;
#X obj 42 41 inlet;
#X obj 15 275 outlet;
#X obj 15 42 tgl 15 0 empty empty empty 17 7 0 10 #fcfcfc #000000 #000000
0 1;
#X obj 15 92 metro;
#X obj 15 197 +;
#X obj 15 172 f 1;
#N canvas 0 22 141 214 skipticks 0;
#X obj 26 47 inlet;
#X obj 26 161 outlet;
#X obj 26 79 & 3;
#X obj 26 106 sel 2;
#X msg 26 131 2;
#X msg 55 131 1;
#X connect 0 0 2 0;
#X connect 2 0 3 0;
#X connect 3 0 4 0;
#X connect 3 1 5 0;
#X connect 4 0 1 0;
#X connect 5 0 1 0;
#X restore 30 145 pd skipticks;
#X obj 15 223 & 255;
#N canvas 934 142 156 171 milliseconds 0;
#X obj 19 18 inlet;
#X obj 19 127 outlet;
#X obj 19 46 t b f;
#X obj 19 94 /;
#X text 18 150 1/12 note;
#X msg 19 70 20000;
#X connect 0 0 2 0;
#X connect 2 0 5 0;
#X connect 2 1 3 1;
#X connect 3 0 1 0;
#X connect 5 0 3 0;
#X restore 42 67 pd milliseconds;
#X text 80 41 BPM;
#X floatatom 42 116 5 0 0 0 - - - 0;
#X obj 15 11 r signature12/16;
#X floatatom 67 250 5 0 0 0 - - - 0;
#N canvas 197 486 215 265 feel 0;
#X obj 21 86 & 1;
#X obj 21 58 t f f;
#X obj 21 25 inlet;
#X obj 21 221 outlet;
#X obj 21 126 pack;
#X obj 21 152 route 0 1;
#X text 16 170 even;
#X text 56 170 odd;
#X obj 89 152 *;
#X obj 99 125 t b f;
#X floatatom 89 192 5 0 0 0 - - - 0;
#X obj 46 191 pipe;
#X text 127 192 milliseconds;
#X obj 89 26 inlet;
#X text 19 4 ticks;
#X text 87 5 feel;
#X obj 99 96 r ticklength12;
#X connect 0 0 4 0;
#X connect 1 0 0 0;
#X connect 1 1 4 1;
#X connect 2 0 1 0;
#X connect 4 0 5 0;
#X connect 5 0 3 0;
#X connect 5 1 11 0;
#X connect 8 0 10 0;
#X connect 8 0 11 1;
#X connect 9 0 8 0;
#X connect 9 1 8 1;
#X connect 11 0 3 0;
#X connect 13 0 8 0;
#X connect 16 0 9 0;
#X restore 15 249 pd feel;
#X obj 54 223 r feel;
#X obj 54 92 s ticklength12;
#X connect 0 0 8 0;
#X connect 2 0 3 0;
#X connect 3 0 5 0;
#X connect 4 0 7 0;
#X connect 5 0 4 0;
#X connect 6 0 5 1;
#X connect 7 0 4 1;
#X connect 7 0 6 0;
#X connect 7 0 13 0;
#X connect 8 0 3 1;
#X connect 8 0 10 0;
#X connect 8 0 15 0;
#X connect 11 0 2 0;
#X connect 13 0 1 0;
#X connect 14 0 13 1;
#X connect 14 0 12 0;
#X restore 79 78 pd 12/16;
#N canvas 653 431 276 362 16/16 0;
#X obj 46 45 inlet;
#X obj 19 251 outlet;
#X obj 19 143 f;
#X obj 19 168 + 1;
#X obj 19 46 tgl 15 0 empty empty empty 17 7 0 10 #fcfcfc #000000 #000000
0 1;
#X obj 19 118 metro;
#X floatatom 71 223 5 0 0 0 - - - 0;
#N canvas 813 182 215 265 feel 0;
#X obj 21 86 & 1;
#X obj 21 58 t f f;
#X obj 21 25 inlet;
#X obj 21 221 outlet;
#X obj 21 126 pack;
#X obj 21 152 route 0 1;
#X text 16 170 even;
#X text 56 170 odd;
#X obj 89 152 *;
#X obj 99 125 t b f;
#X floatatom 89 192 5 0 0 0 - - - 0;
#X obj 46 191 pipe;
#X text 127 192 milliseconds;
#X obj 89 26 inlet;
#X text 19 4 ticks;
#X text 87 5 feel;
#X obj 99 91 r ticklength16;
#X connect 0 0 4 0;
#X connect 1 0 0 0;
#X connect 1 1 4 1;
#X connect 2 0 1 0;
#X connect 4 0 5 0;
#X connect 5 0 3 0;
#X connect 5 1 11 0;
#X connect 8 0 10 0;
#X connect 8 0 11 1;
#X connect 9 0 8 0;
#X connect 9 1 8 1;
#X connect 11 0 3 0;
#X connect 13 0 8 0;
#X connect 16 0 9 0;
#X restore 19 222 pd feel;
#X obj 58 196 r feel;
#X obj 19 196 & 255;
#N canvas 934 142 164 180 milliseconds 0;
#X obj 19 18 inlet;
#X obj 19 123 outlet;
#X obj 19 46 t b f;
#X obj 19 94 /;
#X text 18 150 1/16 note;
#X msg 19 70 15000;
#X connect 0 0 2 0;
#X connect 2 0 5 0;
#X connect 2 1 3 1;
#X connect 3 0 1 0;
#X connect 5 0 3 0;
#X restore 46 69 pd milliseconds;
#X text 85 46 BPM;
#X obj 60 118 s ticklength16;
#X text 58 140 1/16 note tick length;
#X floatatom 63 93 5 0 0 0 - - - 0;
#X obj 19 16 r signature16/16;
#X connect 0 0 10 0;
#X connect 2 0 3 0;
#X connect 3 0 9 0;
#X connect 4 0 5 0;
#X connect 5 0 2 0;
#X connect 7 0 1 0;
#X connect 8 0 7 1;
#X connect 8 0 6 0;
#X connect 9 0 2 1;
#X connect 9 0 7 0;
#X connect 10 0 5 1;
#X connect 10 0 12 0;
#X connect 10 0 14 0;
#X connect 15 0 4 0;
#X restore 22 78 pd 16/16;
#X obj 100 22 inlet;
#X obj 103 240 s \$0-hit;
#X connect 1 0 17 0;
#X connect 1 0 16 0;
#X connect 4 0 3 0;
#X connect 9 0 10 0;
#X connect 10 0 19 0;
#X connect 11 0 12 0;
#X connect 12 0 19 0;
#X connect 13 0 14 0;
#X connect 14 0 19 0;
#X connect 16 0 7 0;
#X connect 16 0 8 0;
#X connect 17 0 6 0;
#X connect 17 0 8 0;
#X connect 18 0 1 0;
#X coords 0 -1 1 1 155 65 2 195 45;
#X restore 749 52 pd swingmetro;
#X floatatom 763 22 5 20 5000 0 - - - 0;
#X text 943 66 swing clock;
#X text 816 17 BPM (1/4 notes);
#X floatatom 693 356 4 0 127 0 - - - 0;
#X floatatom 742 340 4 0 127 0 - - - 0;
#X obj 748 370 + 1;
#X floatatom 833 369 4 0 1000 0 - - - 0;
#X floatatom 907 343 4 0 127 0 - - - 0;
#X obj 910 369 + 1;
#X msg 543 385 info;
#X obj 461 360 tgl 17 0 empty empty empty 17 7 0 10 #dfdfdf #000000
#000000 0 1;
#X msg 461 385 verbose \$1;
#X msg 423 425 version;
#X msg 778 480 ctl \$1 0 1;
#X obj 778 456 tgl 17 0 empty empty empty 17 7 0 10 #dfdfdf #000000
#000000 0 1;
#X text 801 457 bank 0/1 in ch 1;
#X text 849 474 control number 0, f 8;
#X obj 648 428 else/display;
#X obj 778 420 else/display;
#X obj 648 398 else/pack2 pgm f 1;
#X obj 801 396 else/pack2 bank f 1;
#X msg 725 21 0;
#X obj 590 580 else/display;
#N canvas 382 94 770 594 rfa 0;
#N canvas 231 307 730 540 generate_sinesum 0;
#X obj 125 133 ifft~;
#X obj 378 42 inlet;
#X obj 509 205 table \$0-harmonics 256;
#X obj 378 68 route sinesum;
#X obj 378 90 list split 1;
#X obj 370 204 s \$0-harmonics;
#X obj 136 77 tabreceive~ \$0-harmonics;
#X obj 368 178 list prepend 1;
#X obj 341 121 t b l b;
#X msg 94 224 1;
#X obj 44 180 bang~;
#X msg 44 203 0;
#X obj 252 249 tabwrite~ \$0-sinesum;
#X obj 53 265 block~ 256;
#X connect 0 1 12 0;
#X connect 1 0 3 0;
#X connect 3 0 4 0;
#X connect 4 1 8 0;
#X connect 6 0 0 0;
#X connect 7 0 5 0;
#X connect 8 0 12 0;
#X connect 8 1 7 0;
#X connect 8 2 9 0;
#X connect 9 0 13 0;
#X connect 10 0 11 0;
#X connect 11 0 13 0;
#X restore 149 63 pd generate_sinesum;
#N canvas 0 50 450 250 (subpatch) 0;
#X array \$0-sinesum 259 float 0;
#X coords 0 1 258 -1 200 133 1 0 0;
#X restore 283 113 graph;
#X obj 237 115 vsl 20 128 0 0.3 0 0 \$0-harmo7 \$0-harmo7-rcv empty
0 -9 0 10 #fcfcfc #000000 #000000 0 1;
#X obj 259 115 vsl 20 128 0 0.3 0 0 \$0-harmo8 \$0-harmo8-rcv empty
0 -9 0 10 #fcfcfc #000000 #000000 0 1;
#X obj 192 115 vsl 20 128 0 0.3 0 0 \$0-harmo5 \$0-harmo5-rcv empty
0 -9 0 10 #fcfcfc #000000 #000000 0 1;
#X obj 214 115 vsl 20 128 0 0.3 0 0 \$0-harmo6 \$0-harmo6-rcv empty
0 -9 0 10 #fcfcfc #000000 #000000 0 1;
#X obj 148 115 vsl 20 128 0 0.3 0 0 \$0-harmo3 \$0-harmo3-rcv empty
0 -9 0 10 #fcfcfc #000000 #000000 0 1;
#X obj 104 115 vsl 20 128 0 0.3 0 0 \$0-harmo1 \$0-harmo1-rcv partials
0 -9 0 10 #ffffff #000000 #000000 0 1;
#X obj 126 115 vsl 20 128 0 0.3 0 0 \$0-harmo2 \$0-harmo2-rcv empty
0 -9 0 10 #fcfcfc #000000 #000000 0 1;
#N canvas 0 50 582 380 sliders_changed 0;
#X obj 145 101 t b f;
#X obj 180 89 t b f;
#X obj 237 93 t b f;
#X obj 288 95 t b f;
#X obj 333 97 t b f;
#X obj 389 96 t b f;
#X obj 437 97 t b f;
#X obj 157 146 pack f f f f f f f f;
#X obj 96 102 t b f;
#X obj 130 186 list append;
#X obj 50 179 t b b;
#X obj 34 61 r \$0-harmo1;
#X obj 124 41 r \$0-harmo2;
#X obj 179 66 r \$0-harmo3;
#X obj 234 41 r \$0-harmo4;
#X obj 284 61 r \$0-harmo5;
#X obj 334 41 r \$0-harmo6;
#X obj 394 61 r \$0-harmo7;
#X obj 444 41 r \$0-harmo8;
#X obj 50 157 delay 0;
#X obj 130 211 outlet;
#X connect 0 0 19 0;
#X connect 0 1 7 1;
#X connect 1 0 19 0;
#X connect 1 1 7 2;
#X connect 2 0 19 0;
#X connect 2 1 7 3;
#X connect 3 0 19 0;
#X connect 3 1 7 4;
#X connect 4 0 19 0;
#X connect 4 1 7 5;
#X connect 5 0 19 0;
#X connect 5 1 7 6;
#X connect 6 0 19 0;
#X connect 6 1 7 7;
#X connect 7 0 9 1;
#X connect 8 0 19 0;
#X connect 8 1 7 0;
#X connect 9 0 20 0;
#X connect 10 0 9 0;
#X connect 10 1 7 0;
#X connect 11 0 8 0;
#X connect 12 0 0 0;
#X connect 13 0 1 0;
#X connect 14 0 2 0;
#X connect 15 0 3 0;
#X connect 16 0 4 0;
#X connect 17 0 5 0;
#X connect 18 0 6 0;
#X connect 19 0 10 0;
#X restore 148 17 pd sliders_changed;
#X msg 149 40 sinesum 32 \$1 \$2 \$3 \$4 \$5 \$6 \$7 \$8;
#X obj 170 115 vsl 20 128 0 0.3 0 0 \$0-harmo4 \$0-harmo4-rcv empty
0 -9 0 10 #fcfcfc #000000 #000000 0 1;
#X obj 343 447 tabosc4~ \$0-sinesum;
#X obj 354 475 snapshot~;
#X msg 386 420 \$1;
#X obj 346 499 expr int((($f1 +1 ) /2) * 27);
#X obj 341 395 expr ($f1 / 20) + 0.05;
#X obj 340 422 / 100;
#X obj 339 370 r \$0-ordfreq;
#X obj 346 527 s \$0-notenum;
#X obj 495 451 r \$0-hit;
#X text 319 336 This reads the wavetable and spits out a note periodically
;
#X connect 9 0 10 0;
#X connect 10 0 0 0;
#X connect 12 0 13 0;
#X connect 13 0 15 0;
#X connect 14 0 12 0;
#X connect 15 0 17 0;
#X connect 15 0 19 0;
#X connect 16 0 14 0;
#X connect 17 0 12 0;
#X connect 18 0 16 0;
#X connect 20 0 13 0;
#X coords 0 -1 1 1 384 148 2 100 100;
#X restore 26 64 pd rfa;
#X obj 648 519 else/sfont~ FluidR3_GM.sf2;
#N canvas 134 84 640 300 scale2note 0;
#X obj 325 106 f2scale \$1 32;
#X obj 444 213 pack f f;
#X obj 409 139 s \$0-name;
#X obj 480 84 r \$0-offset;
#X obj 367 78 r \$0-scale-num;
#X obj 402 174 makenote 100 100;
#X obj 559 124 r \$0-len;
#X floatatom 53 10 5 0 115 1 scale\ num - \$0-scale-num 0;
#X symbolatom 54 44 27 0 0 2 scale\ name \$0-name - 0;
#X floatatom 5 11 5 0 100 3 offset - \$0-offset 0;
#X obj 307 42 r \$0-notenum;
#X obj 445 261 s \$0-midinote;
#X connect 0 0 5 0;
#X connect 0 1 2 0;
#X connect 1 0 11 0;
#X connect 3 0 0 2;
#X connect 4 0 0 1;
#X connect 5 0 1 0;
#X connect 5 1 1 1;
#X connect 6 0 5 2;
#X connect 10 0 0 0;
#X coords 0 -1 1 1 253 63 2 0 5;
#X restore 149 265 pd scale2note;
#X obj 648 544 throw~ \$0-audio;
#X obj 27 225 catch~ \$0-audio;
#X obj 589 352 r \$0-midinote;
#X connect 4 0 3 0;
#X connect 7 0 23 1;
#X connect 8 0 9 0;
#X connect 9 0 23 2;
#X connect 10 0 24 1;
#X connect 11 0 12 0;
#X connect 12 0 24 2;
#X connect 13 0 28 0;
#X connect 14 0 15 0;
#X connect 15 0 28 0;
#X connect 16 0 28 0;
#X connect 18 0 17 0;
#X connect 21 0 28 0;
#X connect 22 0 28 0;
#X connect 23 0 21 0;
#X connect 24 0 22 0;
#X connect 25 0 3 0;
#X connect 28 0 30 0;
#X connect 28 2 26 0;
#X connect 31 0 0 0;
#X connect 32 0 28 0;
