#N canvas 311 140 989 622 12;
#N canvas 231 307 730 540 generate_sinesum 0;
#X obj 125 133 ifft~;
#X obj 378 42 inlet;
#X obj 509 205 table \$0-harmonics 256;
#X obj 378 68 route sinesum;
#X obj 378 90 list split 1;
#X obj 370 204 s \$0-harmonics;
#X obj 136 77 tabreceive~ \$0-harmonics;
#X obj 368 178 list prepend 1;
#X obj 341 121 t b l b;
#X msg 94 224 1;
#X obj 44 180 bang~;
#X msg 44 203 0;
#X obj 252 249 tabwrite~ \$0-sinesum;
#X obj 53 265 block~ 256;
#X connect 0 1 12 0;
#X connect 1 0 3 0;
#X connect 3 0 4 0;
#X connect 4 1 8 0;
#X connect 6 0 0 0;
#X connect 7 0 5 0;
#X connect 8 0 12 0;
#X connect 8 1 7 0;
#X connect 8 2 9 0;
#X connect 9 0 13 0;
#X connect 10 0 11 0;
#X connect 11 0 13 0;
#X restore 186 325 pd generate_sinesum;
#N canvas 0 50 450 250 (subpatch) 0;
#X array \$0-sinesum 259 float 0;
#X coords 0 1 258 -1 200 100 1 0 0;
#X restore 178 380 graph;
#X obj 374 136 vsl 50 128 0 0.3 0 0 \$0-harmo7 \$0-harmo7-rcv empty
0 -9 0 10 #fcfcfc #000000 #000000 0 1;
#X obj 425 136 vsl 50 128 0 0.3 0 0 \$0-harmo8 \$0-harmo8-rcv empty
0 -9 0 10 #fcfcfc #000000 #000000 0 1;
#X obj 271 138 vsl 50 128 0 0.3 0 0 \$0-harmo5 \$0-harmo5-rcv empty
0 -9 0 10 #fcfcfc #000000 #000000 0 1;
#X obj 321 136 vsl 50 128 0 0.3 0 0 \$0-harmo6 \$0-harmo6-rcv empty
0 -9 0 10 #fcfcfc #000000 #000000 0 1;
#X obj 174 137 vsl 50 128 0 0.3 0 0 \$0-harmo3 \$0-harmo3-rcv empty
0 -9 0 10 #fcfcfc #000000 #000000 0 1;
#X obj 223 137 vsl 50 128 0 0.3 0 0 \$0-harmo4 \$0-harmo4-rcv empty
0 -9 0 10 #fcfcfc #000000 #000000 0 1;
#X obj 74 138 vsl 50 128 0 0.3 0 0 \$0-harmo1 \$0-harmo1-rcv empty
0 -9 0 10 #fcfcfc #000000 #000000 0 1;
#X obj 124 140 vsl 50 128 0 0.3 0 0 \$0-harmo2 \$0-harmo2-rcv empty
0 -9 0 10 #fcfcfc #000000 #000000 0 1;
#N canvas 0 50 582 380 sliders_changed 0;
#X obj 145 101 t b f;
#X obj 180 89 t b f;
#X obj 237 93 t b f;
#X obj 288 95 t b f;
#X obj 333 97 t b f;
#X obj 389 96 t b f;
#X obj 437 97 t b f;
#X obj 157 146 pack f f f f f f f f;
#X obj 96 102 t b f;
#X obj 130 186 list append;
#X obj 50 179 t b b;
#X obj 34 61 r \$0-harmo1;
#X obj 124 41 r \$0-harmo2;
#X obj 179 66 r \$0-harmo3;
#X obj 234 41 r \$0-harmo4;
#X obj 284 61 r \$0-harmo5;
#X obj 334 41 r \$0-harmo6;
#X obj 394 61 r \$0-harmo7;
#X obj 444 41 r \$0-harmo8;
#X obj 50 157 delay 0;
#X obj 130 211 outlet;
#X connect 0 0 19 0;
#X connect 0 1 7 1;
#X connect 1 0 19 0;
#X connect 1 1 7 2;
#X connect 2 0 19 0;
#X connect 2 1 7 3;
#X connect 3 0 19 0;
#X connect 3 1 7 4;
#X connect 4 0 19 0;
#X connect 4 1 7 5;
#X connect 5 0 19 0;
#X connect 5 1 7 6;
#X connect 6 0 19 0;
#X connect 6 1 7 7;
#X connect 7 0 9 1;
#X connect 8 0 19 0;
#X connect 8 1 7 0;
#X connect 9 0 20 0;
#X connect 10 0 9 0;
#X connect 10 1 7 0;
#X connect 11 0 8 0;
#X connect 12 0 0 0;
#X connect 13 0 1 0;
#X connect 14 0 2 0;
#X connect 15 0 3 0;
#X connect 16 0 4 0;
#X connect 17 0 5 0;
#X connect 18 0 6 0;
#X connect 19 0 10 0;
#X restore 185 279 pd sliders_changed;
#X obj 559 469 out1~;
#X obj 496 105 tabosc4~ \$0-sinesum;
#X obj 758 177 snapshot~;
#X obj 763 31 tgl 15 0 empty empty empty 17 7 0 10 #fcfcfc #000000
#000000 0 1;
#X obj 759 11 bng 15 250 50 0 empty empty empty 17 7 0 10 #fcfcfc #000000
#000000;
#X obj 570 378 mtof;
#X floatatom 508 376 5 0 0 0 - - - 0;
#X obj 706 395 pack f 100;
#X text 125 89 Wave table sum of sine waves \, 8 harmonics;
#N canvas 150 175 916 300 credits 1;
#X text 88 33 CREDITS ======= Patch glued together by dr_kd: http://unfuck.i.ng
Sinesum patch: https://forum.pdpatchrepo.info/topic/13297/need-help-implementing-sinesum-oscillator-with-variable-list/7
f2scale and blip~ synth from user weightless here: https://forum.pdpatchrepo.info/topic/11775/creating-a-quantizer/6
, f 111;
#X restore 126 586 pd credits;
#X text 533 236 transform to midi note;
#X text 645 282 quantize to named scale;
#X msg 186 302 sinesum 32 \$1 \$2 \$3 \$4 \$5 \$6 \$7 \$8;
#X obj 709 460 blip~ 16 500;
#X obj 538 305 f2scale blues_nine-note 32;
#X msg 539 78 \$1;
#X obj 408 34 hradio 15 1 0 20 empty empty empty 0 -8 0 10 #fcfcfc
#000000 #000000 0;
#X floatatom 724 233 5 0 0 0 - - - 0;
#X obj 494 53 expr ($f1 / 10) + 0.1;
#X floatatom 494 78 5 0 0 0 - - - 0;
#X obj 758 153 metro 250;
#X obj 810 96 hsl 128 15 20 500 0 0 empty empty empty -2 -8 0 10 #fcfcfc
#000000 #000000 0 1;
#X floatatom 876 155 5 0 0 0 - - - 0;
#X obj 809 124 int;
#X obj 726 205 expr int((($f1 +1 ) /2) * 27);
#X floatatom 788 323 5 0 0 0 - - - 0;
#X text 483 7 How often to read the wavetable;
#X connect 10 0 23 0;
#X connect 12 0 13 0;
#X connect 13 0 35 0;
#X connect 14 0 31 0;
#X connect 15 0 14 0;
#X connect 15 0 27 0;
#X connect 16 0 18 0;
#X connect 18 0 24 0;
#X connect 23 0 0 0;
#X connect 24 0 11 0;
#X connect 25 0 16 0;
#X connect 25 0 17 0;
#X connect 26 0 12 0;
#X connect 27 0 29 0;
#X connect 28 0 25 0;
#X connect 29 0 26 0;
#X connect 29 0 30 0;
#X connect 31 0 13 0;
#X connect 32 0 34 0;
#X connect 34 0 31 1;
#X connect 34 0 33 0;
#X connect 35 0 28 0;
#X connect 36 0 25 1;
