#N canvas 0 25 1408 847 12;
#N canvas 231 307 730 540 generate_sinesum 0;
#X obj 125 133 ifft~;
#X obj 378 42 inlet;
#X obj 509 205 table \$0-harmonics 256;
#X obj 378 68 route sinesum;
#X obj 378 90 list split 1;
#X obj 370 204 s \$0-harmonics;
#X obj 136 77 tabreceive~ \$0-harmonics;
#X obj 368 178 list prepend 1;
#X obj 341 121 t b l b;
#X msg 94 224 1;
#X obj 44 180 bang~;
#X msg 44 203 0;
#X obj 252 249 tabwrite~ \$0-sinesum;
#X obj 53 265 block~ 256;
#X connect 0 1 12 0;
#X connect 1 0 3 0;
#X connect 3 0 4 0;
#X connect 4 1 8 0;
#X connect 6 0 0 0;
#X connect 7 0 5 0;
#X connect 8 0 12 0;
#X connect 8 1 7 0;
#X connect 8 2 9 0;
#X connect 9 0 13 0;
#X connect 10 0 11 0;
#X connect 11 0 13 0;
#X restore 186 325 pd generate_sinesum;
#N canvas 0 50 450 250 (subpatch) 0;
#X array \$0-sinesum 259 float 0;
#X coords 0 1 258 -1 200 100 1 0 0;
#X restore 178 380 graph;
#X obj 374 136 vsl 50 128 0 0.3 0 0 \$0-harmo7 \$0-harmo7-rcv empty
0 -9 0 10 #fcfcfc #000000 #000000 0 1;
#X obj 425 135 vsl 50 128 0 0.3 0 0 \$0-harmo8 \$0-harmo8-rcv empty
0 -9 0 10 #fcfcfc #000000 #000000 0 1;
#X obj 270 137 vsl 50 128 0 0.3 0 0 \$0-harmo5 \$0-harmo5-rcv empty
0 -9 0 10 #fcfcfc #000000 #000000 0 1;
#X obj 321 136 vsl 50 128 0 0.3 0 0 \$0-harmo6 \$0-harmo6-rcv empty
0 -9 0 10 #fcfcfc #000000 #000000 0 1;
#X obj 174 137 vsl 50 128 0 0.3 0 0 \$0-harmo4 \$0-harmo4-rcv empty
0 -9 0 10 #fcfcfc #000000 #000000 0 1;
#X obj -161 94 vsl 50 128 0 0.3 0 0 \$0-harmo4 \$0-harmo4-rcv empty
0 -9 0 10 #fcfcfc #000000 #000000 0 1;
#X obj 73 137 vsl 50 128 0 0.3 0 0 \$0-harmo1 \$0-harmo1-rcv empty
0 -9 0 10 #fcfcfc #000000 #000000 0 1;
#X obj 125 137 vsl 50 128 0 0.3 0 0 \$0-harmo2 \$0-harmo2-rcv empty
0 -9 0 10 #fcfcfc #000000 #000000 0 1;
#N canvas 0 50 582 380 sliders_changed 0;
#X obj 145 101 t b f;
#X obj 180 89 t b f;
#X obj 237 93 t b f;
#X obj 288 95 t b f;
#X obj 333 97 t b f;
#X obj 389 96 t b f;
#X obj 437 97 t b f;
#X obj 157 146 pack f f f f f f f f;
#X obj 96 102 t b f;
#X obj 130 186 list append;
#X obj 50 179 t b b;
#X obj 34 61 r \$0-harmo1;
#X obj 124 41 r \$0-harmo2;
#X obj 179 66 r \$0-harmo3;
#X obj 234 41 r \$0-harmo4;
#X obj 284 61 r \$0-harmo5;
#X obj 334 41 r \$0-harmo6;
#X obj 394 61 r \$0-harmo7;
#X obj 444 41 r \$0-harmo8;
#X obj 50 157 delay 0;
#X obj 130 211 outlet;
#X connect 0 0 19 0;
#X connect 0 1 7 1;
#X connect 1 0 19 0;
#X connect 1 1 7 2;
#X connect 2 0 19 0;
#X connect 2 1 7 3;
#X connect 3 0 19 0;
#X connect 3 1 7 4;
#X connect 4 0 19 0;
#X connect 4 1 7 5;
#X connect 5 0 19 0;
#X connect 5 1 7 6;
#X connect 6 0 19 0;
#X connect 6 1 7 7;
#X connect 7 0 9 1;
#X connect 8 0 19 0;
#X connect 8 1 7 0;
#X connect 9 0 20 0;
#X connect 10 0 9 0;
#X connect 10 1 7 0;
#X connect 11 0 8 0;
#X connect 12 0 0 0;
#X connect 13 0 1 0;
#X connect 14 0 2 0;
#X connect 15 0 3 0;
#X connect 16 0 4 0;
#X connect 17 0 5 0;
#X connect 18 0 6 0;
#X connect 19 0 10 0;
#X restore 185 279 pd sliders_changed;
#X obj 495 689 out1~;
#X obj 496 105 tabosc4~ \$0-sinesum;
#X obj 795 127 snapshot~;
#X text 146 112 Wave table sum of sine waves \, 8 harmonics;
#N canvas 150 175 916 300 credits 0;
#X text 88 33 CREDITS ======= Patch glued together by dr_kd: http://unfuck.i.ng
Sinesum patch: https://forum.pdpatchrepo.info/topic/13297/need-help-implementing-sinesum-oscillator-with-variable-list/7
f2scale and blip~ synth from user weightless here: https://forum.pdpatchrepo.info/topic/11775/creating-a-quantizer/6
, f 111;
#X restore 126 586 pd credits;
#X text 544 183 transform to midi note;
#X text 733 306 quantize to named scale;
#X msg 186 302 sinesum 32 \$1 \$2 \$3 \$4 \$5 \$6 \$7 \$8;
#X msg 539 78 \$1;
#X obj 408 34 hradio 15 1 0 20 empty empty empty 0 -8 0 10 #fcfcfc
#000000 #000000 0;
#X floatatom 500 182 5 0 0 0 - - - 0;
#X obj 499 157 expr int((($f1 +1 ) /2) * 27);
#X floatatom 584 229 5 0 115 0 - - - 0;
#X symbolatom 630 347 27 0 0 0 - - - 0;
#X obj 494 53 expr ($f1 / 20) + 0.05;
#N canvas 559 86 450 300 swingmetro 0;
#X text 63 20 BPM;
#X obj 44 45 nbx 3 20 10 200 0 1 empty empty empty 0 -8 0 10 #fcfcfc
#000000 #000000 62 256;
#X obj 207 58 hsl 128 15 0 0.33 0 0 feel empty 16th-note-feel 20 8
0 10 #fcfcfc #fc8000 #000000 0 0;
#N canvas 526 170 191 127 time-signature 0;
#X obj 19 16 inlet;
#X obj 19 50 == 0;
#X obj 62 50 s signature12/16;
#X obj 19 77 s signature16/16;
#X connect 0 0 1 0;
#X connect 0 0 2 0;
#X connect 1 0 3 0;
#X restore 205 119 pd time-signature;
#X obj 205 76 vradio 15 1 1 2 empty empty empty 0 -8 0 10 #fcfcfc #fc8000
#000000 1;
#X text 224 76 4/4;
#X floatatom 22 108 5 0 0 0 - - - 0;
#X floatatom 79 108 5 0 0 0 - - - 0;
#X obj 22 137 s ticks;
#N canvas 472 450 176 103 sixteenths 0;
#X obj 20 24 r ticks;
#X obj 20 57 outlet;
#X connect 0 0 1 0;
#X restore 158 172 pd sixteenths;
#X obj 158 198 bng 15 50 50 0 empty empty empty 17 7 0 10 #fcfcfc #000000
#000000;
#N canvas 472 450 140 141 eighths 0;
#X obj 20 24 r ticks;
#X obj 20 103 outlet;
#X obj 20 51 >> 1;
#X obj 20 77 change;
#X connect 0 0 2 0;
#X connect 2 0 3 0;
#X connect 3 0 1 0;
#X restore 87 172 pd eighths;
#X obj 87 198 bng 15 50 50 0 empty empty empty 17 7 0 10 #fcfcfc #000000
#000000;
#N canvas 472 450 140 141 quarts 0;
#X obj 20 24 r ticks;
#X obj 20 103 outlet;
#X obj 20 77 change;
#X obj 20 51 >> 2;
#X connect 0 0 3 0;
#X connect 2 0 1 0;
#X connect 3 0 2 0;
#X restore 22 172 pd quarts;
#X obj 22 198 bng 15 50 50 0 empty empty empty 17 7 0 10 #fcfcfc #000000
#000000;
#X text 224 91 12/16;
#N canvas 476 430 171 317 12/16 0;
#X obj 42 41 inlet;
#X obj 15 275 outlet;
#X obj 15 42 tgl 15 0 empty empty empty 17 7 0 10 #fcfcfc #000000 #000000
0 1;
#X obj 15 92 metro;
#X obj 15 197 +;
#X obj 15 172 f 1;
#N canvas 0 22 141 214 skipticks 0;
#X obj 26 47 inlet;
#X obj 26 161 outlet;
#X obj 26 79 & 3;
#X obj 26 106 sel 2;
#X msg 26 131 2;
#X msg 55 131 1;
#X connect 0 0 2 0;
#X connect 2 0 3 0;
#X connect 3 0 4 0;
#X connect 3 1 5 0;
#X connect 4 0 1 0;
#X connect 5 0 1 0;
#X restore 30 145 pd skipticks;
#X obj 15 223 & 255;
#N canvas 934 142 156 171 milliseconds 0;
#X obj 19 18 inlet;
#X obj 19 127 outlet;
#X obj 19 46 t b f;
#X obj 19 94 /;
#X text 18 150 1/12 note;
#X msg 19 70 20000;
#X connect 0 0 2 0;
#X connect 2 0 5 0;
#X connect 2 1 3 1;
#X connect 3 0 1 0;
#X connect 5 0 3 0;
#X restore 42 67 pd milliseconds;
#X text 80 41 BPM;
#X floatatom 42 116 5 0 0 0 - - - 0;
#X obj 15 11 r signature12/16;
#X floatatom 67 250 5 0 0 0 - - - 0;
#N canvas 197 486 215 265 feel 0;
#X obj 21 86 & 1;
#X obj 21 58 t f f;
#X obj 21 25 inlet;
#X obj 21 221 outlet;
#X obj 21 126 pack;
#X obj 21 152 route 0 1;
#X text 16 170 even;
#X text 56 170 odd;
#X obj 89 152 *;
#X obj 99 125 t b f;
#X floatatom 89 192 5 0 0 0 - - - 0;
#X obj 46 191 pipe;
#X text 127 192 milliseconds;
#X obj 89 26 inlet;
#X text 19 4 ticks;
#X text 87 5 feel;
#X obj 99 96 r ticklength12;
#X connect 0 0 4 0;
#X connect 1 0 0 0;
#X connect 1 1 4 1;
#X connect 2 0 1 0;
#X connect 4 0 5 0;
#X connect 5 0 3 0;
#X connect 5 1 11 0;
#X connect 8 0 10 0;
#X connect 8 0 11 1;
#X connect 9 0 8 0;
#X connect 9 1 8 1;
#X connect 11 0 3 0;
#X connect 13 0 8 0;
#X connect 16 0 9 0;
#X restore 15 249 pd feel;
#X obj 54 223 r feel;
#X obj 54 92 s ticklength12;
#X connect 0 0 8 0;
#X connect 2 0 3 0;
#X connect 3 0 5 0;
#X connect 4 0 7 0;
#X connect 5 0 4 0;
#X connect 6 0 5 1;
#X connect 7 0 4 1;
#X connect 7 0 6 0;
#X connect 7 0 13 0;
#X connect 8 0 3 1;
#X connect 8 0 10 0;
#X connect 8 0 15 0;
#X connect 11 0 2 0;
#X connect 13 0 1 0;
#X connect 14 0 13 1;
#X connect 14 0 12 0;
#X restore 79 78 pd 12/16;
#N canvas 653 431 199 282 16/16 0;
#X obj 46 45 inlet;
#X obj 19 251 outlet;
#X obj 19 143 f;
#X obj 19 168 + 1;
#X obj 19 46 tgl 15 0 empty empty empty 17 7 0 10 #fcfcfc #000000 #000000
0 1;
#X obj 19 118 metro;
#X floatatom 71 223 5 0 0 0 - - - 0;
#N canvas 813 182 215 265 feel 0;
#X obj 21 86 & 1;
#X obj 21 58 t f f;
#X obj 21 25 inlet;
#X obj 21 221 outlet;
#X obj 21 126 pack;
#X obj 21 152 route 0 1;
#X text 16 170 even;
#X text 56 170 odd;
#X obj 89 152 *;
#X obj 99 125 t b f;
#X floatatom 89 192 5 0 0 0 - - - 0;
#X obj 46 191 pipe;
#X text 127 192 milliseconds;
#X obj 89 26 inlet;
#X text 19 4 ticks;
#X text 87 5 feel;
#X obj 99 91 r ticklength16;
#X connect 0 0 4 0;
#X connect 1 0 0 0;
#X connect 1 1 4 1;
#X connect 2 0 1 0;
#X connect 4 0 5 0;
#X connect 5 0 3 0;
#X connect 5 1 11 0;
#X connect 8 0 10 0;
#X connect 8 0 11 1;
#X connect 9 0 8 0;
#X connect 9 1 8 1;
#X connect 11 0 3 0;
#X connect 13 0 8 0;
#X connect 16 0 9 0;
#X restore 19 222 pd feel;
#X obj 58 196 r feel;
#X obj 19 196 & 255;
#N canvas 934 142 164 180 milliseconds 0;
#X obj 19 18 inlet;
#X obj 19 123 outlet;
#X obj 19 46 t b f;
#X obj 19 94 /;
#X text 18 150 1/16 note;
#X msg 19 70 15000;
#X connect 0 0 2 0;
#X connect 2 0 5 0;
#X connect 2 1 3 1;
#X connect 3 0 1 0;
#X connect 5 0 3 0;
#X restore 46 69 pd milliseconds;
#X text 85 46 BPM;
#X obj 60 118 s ticklength16;
#X text 58 140 1/16 note tick length;
#X floatatom 63 93 5 0 0 0 - - - 0;
#X obj 19 16 r signature16/16;
#X connect 0 0 10 0;
#X connect 2 0 3 0;
#X connect 3 0 9 0;
#X connect 4 0 5 0;
#X connect 5 0 2 0;
#X connect 7 0 1 0;
#X connect 8 0 7 1;
#X connect 8 0 6 0;
#X connect 9 0 2 1;
#X connect 9 0 7 0;
#X connect 10 0 5 1;
#X connect 10 0 12 0;
#X connect 10 0 14 0;
#X connect 15 0 4 0;
#X restore 22 78 pd 16/16;
#X obj 103 240 outlet;
#X obj 100 22 inlet;
#X connect 1 0 17 0;
#X connect 1 0 16 0;
#X connect 4 0 3 0;
#X connect 9 0 10 0;
#X connect 10 0 18 0;
#X connect 11 0 12 0;
#X connect 12 0 18 0;
#X connect 13 0 14 0;
#X connect 14 0 18 0;
#X connect 16 0 7 0;
#X connect 16 0 8 0;
#X connect 17 0 6 0;
#X connect 17 0 8 0;
#X connect 19 0 1 0;
#X coords 0 -1 1 1 155 65 2 195 45;
#X restore 771 50 pd swingmetro;
#X text 483 7 How often to read the wavetable;
#X floatatom 763 21 5 20 600 0 - - - 0;
#X obj 493 80 / 100;
#X text 943 66 swing clock;
#X text 816 17 BPM (1/4 notes);
#X obj 524 317 f2scale \$1 32;
#X floatatom 648 249 5 20 100 0 - - - 0;
#X obj 221 137 vsl 50 128 0 0.3 0 0 \$0-harmo3 \$0-harmo3-rcv empty
0 -9 0 10 #fcfcfc #000000 #000000 0 1;
#X floatatom 1024 397 4 0 127 0 - - - 0;
#X floatatom 1062 368 4 0 127 0 - - - 0;
#X obj 1068 398 + 1;
#X floatatom 1153 397 4 0 1000 0 - - - 0;
#X floatatom 1227 371 4 0 127 0 - - - 0;
#X obj 1230 397 + 1;
#X msg 789 517 info;
#X obj 707 492 tgl 17 0 empty empty empty 17 7 0 10 #dfdfdf #000000
#000000 0 1;
#X msg 707 517 verbose \$1;
#X msg 908 448 version;
#X msg 1098 508 ctl \$1 0 1;
#X obj 1098 484 tgl 17 0 empty empty empty 17 7 0 10 #dfdfdf #000000
#000000 0 1;
#X text 1121 485 bank 0/1 in ch 1;
#X text 1169 502 control number 0, f 8;
#X obj 968 456 else/display;
#X obj 1098 448 else/display;
#X obj 968 426 else/pack2 pgm f 1;
#X obj 1121 424 else/pack2 bank f 1;
#X msg 725 21 0;
#X obj 601 385 makenote 100 100;
#X obj 643 424 pack f f;
#X obj 1076 601 else/display;
#X obj 968 547 else/sfont~;
#X connect 10 0 18 0;
#X connect 12 0 13 0;
#X connect 13 0 22 0;
#X connect 18 0 0 0;
#X connect 19 0 12 0;
#X connect 20 0 25 0;
#X connect 21 0 32 0;
#X connect 22 0 21 0;
#X connect 22 0 29 0;
#X connect 23 0 32 1;
#X connect 25 0 19 0;
#X connect 26 0 13 0;
#X connect 28 0 26 0;
#X connect 29 0 12 0;
#X connect 32 0 54 0;
#X connect 32 1 24 0;
#X connect 33 0 32 2;
#X connect 35 0 51 1;
#X connect 36 0 37 0;
#X connect 37 0 51 2;
#X connect 38 0 52 1;
#X connect 39 0 40 0;
#X connect 40 0 52 2;
#X connect 41 0 57 0;
#X connect 42 0 43 0;
#X connect 43 0 57 0;
#X connect 44 0 57 0;
#X connect 46 0 45 0;
#X connect 49 0 57 0;
#X connect 50 0 57 0;
#X connect 51 0 49 0;
#X connect 52 0 50 0;
#X connect 53 0 26 0;
#X connect 54 0 55 0;
#X connect 54 1 55 1;
#X connect 55 0 57 0;
#X connect 57 0 11 0;
#X connect 57 2 56 0;
